<svg xmlns="http://www.w3.org/2000/svg" xmlns:svg="http://www.w3.org/2000/svg" id="svg8" width="62mm" height="44mm" version="1.1" viewBox="0 0 62 44"><metadata id="metadata5"/><g id="layer2"><rect style="fill:#fff;fill-opacity:1;stroke-width:.26458332" id="rect905" width="62.14" height="44.901" x="-.134" y=".034" ry="0"/></g><g id="layer1" transform="translate(0,-253)"><rect style="fill:#01a982;fill-opacity:1;stroke-width:.26458332" id="rect815" width="62.14" height="6.815" x="0" y="253.034"/><rect style="fill:#fff;fill-opacity:1;stroke-width:.26458332" id="rect907" width="9.221" height="8.285" x="1.336" y="270.273" ry="0"/><g id="g10456" transform="matrix(0.05458585,0,0,0.06761731,17.228828,261.59125)"><g id="g10454"><g id="g10452"><path id="path10432" d="M 480,15 H 10 C 4.477,15 0,19.477 0,25 v 40 c 0,5.523 4.477,10 10,10 h 10 v 290 c 0,5.523 4.478,10 10,10 h 205 v 80 h -20 v 20 h 60 v -20 h -20 v -80 h 205 c 5.522,0 10,-4.477 10,-10 V 75 h 10 c 5.522,0 10,-4.477 10,-10 V 25 c 0,-5.523 -4.478,-10 -10,-10 z M 450,355 H 40 V 75 H 450 Z M 470,55 H 460 30 20 V 35 h 450 z"/><rect id="rect10434" width="60" height="20" x="70" y="115"/><rect id="rect10436" width="170" height="20" x="70" y="155"/><rect id="rect10438" width="350" height="20" x="70" y="205"/><rect id="rect10440" width="350" height="20" x="70" y="245"/><rect id="rect10442" width="260" height="20" x="70" y="285"/><rect id="rect10444" width="40" height="20" x="380" y="285"/><rect id="rect10446" width="30" height="20" x="395" y="100"/><rect id="rect10448" width="30" height="20" x="350" y="100"/><rect id="rect10450" width="30" height="20" x="395" y="130"/></g></g></g></g></svg>