<svg xmlns="http://www.w3.org/2000/svg" xmlns:svg="http://www.w3.org/2000/svg" id="svg8" width="62mm" height="44mm" version="1.1" viewBox="0 0 62 44"><metadata id="metadata5"/><g id="layer2"><rect style="fill:#fff;fill-opacity:1;stroke-width:.26458332" id="rect905" width="62.14" height="44.901" x="0" y=".034" ry="0"/></g><g id="layer1" transform="translate(0,-253)"><rect style="fill:#01a982;fill-opacity:1;stroke-width:.26458332" id="rect815" width="62.14" height="6.815" x="0" y="253.034"/><rect style="fill:#a92101;fill-opacity:1;stroke-width:.26458332" id="rect817" width="1.604" height="14.566" x="3.207" y="279.36"/><rect style="fill:#0140a9;fill-opacity:1;stroke-width:.23773359" id="rect817-3" width="1.604" height="11.76" x="5.34" y="282.167"/><rect style="fill:#a3a901;fill-opacity:1;stroke-width:.28220198" id="rect817-90" width="1.604" height="16.571" x="7.473" y="277.356"/><rect style="fill:#a92101;fill-opacity:1;stroke-width:.2508778" id="rect817-1" width="1.604" height="13.096" x="14.972" y="280.697"/><rect style="fill:#0140a9;fill-opacity:1;stroke-width:.2508778" id="rect817-3-8" width="1.604" height="13.096" x="17.105" y="280.697"/><rect style="fill:#a3a901;fill-opacity:1;stroke-width:.26336685" id="rect817-90-8" width="1.604" height="14.433" x="19.238" y="279.36"/><rect style="fill:#a92101;fill-opacity:1;stroke-width:.23637897" id="rect817-2" width="1.604" height="11.626" x="26.064" y="282.167"/><rect style="fill:#0140a9;fill-opacity:1;stroke-width:.25215456" id="rect817-3-6" width="1.604" height="13.23" x="28.197" y="280.563"/><rect style="fill:#a3a901;fill-opacity:1;stroke-width:.25968319" id="rect817-90-4" width="1.604" height="14.032" x="30.33" y="279.761"/><rect style="fill:#a92101;fill-opacity:1;stroke-width:.21800432" id="rect817-909" width="1.604" height="9.889" x="37.557" y="283.637"/><rect style="fill:#0140a9;fill-opacity:1;stroke-width:.23773359" id="rect817-3-61" width="1.604" height="11.76" x="39.69" y="281.766"/><rect style="fill:#a3a901;fill-opacity:1;stroke-width:.27528986" id="rect817-90-2" width="1.604" height="15.769" x="41.822" y="277.757"/><rect style="fill:#a92101;fill-opacity:1;stroke-width:.20273989" id="rect817-0" width="1.604" height="8.553" x="49.183" y="285.101"/><rect style="fill:#0140a9;fill-opacity:1;stroke-width:.23088104" id="rect817-3-7" width="1.604" height="11.092" x="51.316" y="282.562"/><rect style="fill:#a3a901;fill-opacity:1;stroke-width:.29226381" id="rect817-90-6" width="1.604" height="17.773" x="53.449" y="275.88"/><path style="fill:none;stroke:#000;stroke-width:.26458332px;stroke-linecap:butt;stroke-linejoin:miter;stroke-opacity:1" id="path897" d="m 3.3408689,274.28209 c 0,0 2.3828797,-1.33904 4.8209348,-0.18135 11.0762293,5.25946 19.7678613,-0.48683 19.7678613,-0.48683 l 13.49711,-1.06907 10.690783,-2.27179 1.202711,0.93544"/></g></svg>