<svg xmlns="http://www.w3.org/2000/svg" xmlns:svg="http://www.w3.org/2000/svg" id="svg8" width="62mm" height="44mm" version="1.1" viewBox="0 0 62 44"><metadata id="metadata5"/><g id="layer2"><rect style="fill:#fff;fill-opacity:1;stroke-width:.26458332" id="rect905" width="62.14" height="44.901" x="-.134" y=".034" ry="0"/></g><g id="layer1" transform="translate(0,-253)"><rect style="fill:#01a982;fill-opacity:1;stroke-width:.26458332" id="rect815" width="62.14" height="6.815" x="0" y="253.034"/><rect style="fill:#fff;fill-opacity:1;stroke-width:.26458332" id="rect907" width="9.221" height="8.285" x="1.336" y="270.273" ry="0"/><path style="fill-rule:evenodd;stroke-width:2.19919276" id="path1399" d="m 21.903851,277.43697 c 0.603077,0.54226 2.968574,2.77355 2.968574,2.77355 l 1.298807,-1.20952 -2.040907,-1.89766 3.919474,-3.75364 c 0,0 -1.762598,-1.54315 -0.997268,-0.93839 0.74245,-2.48162 0.07013,-5.23429 -2.017767,-7.17364 -2.087274,-1.91856 -5.032709,-2.54413 -7.676694,-1.89767 l 4.476182,4.17066 -1.182837,4.08734 -4.383354,1.08437 -4.476181,-4.17074 c -0.718784,2.46073 -0.04383,5.19259 2.040994,7.11106 2.180019,2.04372 5.311023,2.62759 8.070977,1.81428 z m 14.935883,4.04557 -5.40385,4.7963 8.905904,8.29977 c 0.718785,0.68807 1.693087,1.02179 2.643985,1.02179 0.950898,0 1.901796,-0.3334 2.643897,-1.02179 1.461147,-1.35548 1.461147,-3.54516 0,-4.90057 z m 11.781828,-13.93012 -5.68216,-5.27597 -16.745029,15.55674 2.040995,1.89765 -9.995998,9.30068 -2.295988,1.10524 -3.223745,4.73379 0.811699,0.77162 5.102313,-3.00291 1.182837,-2.12702 10.01914,-9.30067 2.040907,1.89767 z"/></g></svg>