<svg xmlns="http://www.w3.org/2000/svg" xmlns:svg="http://www.w3.org/2000/svg" id="svg8" width="62mm" height="44mm" version="1.1" viewBox="0 0 62 44"><metadata id="metadata5"/><g id="layer2"><rect style="fill:#fff;fill-opacity:1;stroke-width:.26458332" id="rect905" width="62.14" height="44.901" x="-.134" y=".034" ry="0"/></g><g id="layer1" transform="translate(0,-253)"><rect style="fill:#01a982;fill-opacity:1;stroke-width:.26458332" id="rect815" width="62.14" height="6.815" x="0" y="253.034"/><rect style="fill:#fff;fill-opacity:1;stroke-width:.26458332" id="rect907" width="9.221" height="8.285" x="1.336" y="270.273" ry="0"/><g id="g817" transform="matrix(0.09876147,0,0,0.06145925,5.4552557,261.57158)"><path id="path815" d="M 488.426,197.019 H 475.2 v -63.816 c 0,-0.401 -0.063,-0.799 -0.116,-1.205 -0.021,-2.534 -0.827,-5.023 -2.562,-6.992 L 366.325,3.691 C 366.293,3.66 366.262,3.649 366.24,3.618 365.607,2.911 364.869,2.32 364.089,1.814 363.858,1.656 363.625,1.527 363.383,1.392 362.707,1.026 361.99,0.717 361.252,0.496 c -0.2,-0.053 -0.38,-0.135 -0.58,-0.19 C 359.87,0.119 359.037,0 358.193,0 H 97.2 C 85.282,0 75.6,9.693 75.6,21.601 V 197.014 H 62.377 c -17.049,0 -30.873,13.818 -30.873,30.87 v 160.542 c 0,17.044 13.824,30.876 30.873,30.876 H 75.601 V 529.2 c 0,11.907 9.682,21.601 21.6,21.601 h 356.4 c 11.907,0 21.6,-9.693 21.6,-21.601 V 419.302 h 13.226 c 17.044,0 30.871,-13.827 30.871,-30.87 V 227.89 C 519.297,210.838 505.47,197.019 488.426,197.019 Z M 97.2,21.605 h 250.193 v 110.51 c 0,5.967 4.841,10.8 10.8,10.8 H 453.6 v 54.108 H 97.2 Z m 309.267,342.378 h -26.104 l -1.751,-46.464 c -0.527,-14.598 -1.055,-32.236 -1.055,-49.895 h -0.517 c -3.691,15.485 -8.596,32.782 -13.163,47.015 l -14.354,47.366 h -20.851 l -12.625,-47.002 c -3.85,-14.228 -7.889,-31.524 -10.694,-47.374 h -0.348 c -0.707,16.397 -1.234,35.129 -2.1,50.253 l -2.114,46.111 H 276.08 l 7.535,-121.395 h 35.575 l 11.569,40.521 c 3.691,14.048 7.362,29.183 9.999,43.416 h 0.521 c 3.344,-14.054 7.356,-30.074 11.222,-43.585 l 12.614,-40.353 h 34.879 z M 174.438,265.642 v -23.058 h 90.77 v 23.058 h -32.239 v 98.342 h -26.821 v -98.342 z m -85.035,47.553 v 50.788 H 62.604 V 242.584 h 26.799 v 46.654 h 43.999 v -46.654 h 26.645 V 363.983 H 133.402 V 313.189 H 89.403 Z M 453.601,523.353 H 97.2 V 419.302 h 356.4 v 104.051 z m 47.186,-159.37 H 427.001 V 242.584 h 26.811 v 98.339 h 46.976 v 23.06 z"/></g></g></svg>