<svg xmlns="http://www.w3.org/2000/svg" xmlns:svg="http://www.w3.org/2000/svg" id="svg8" width="62mm" height="44mm" version="1.1" viewBox="0 0 62 44"><metadata id="metadata5"/><g id="layer2"><rect style="fill:#fff;fill-opacity:1;stroke-width:.26458332" id="rect905" width="62.14" height="44.901" x="0" y=".168" ry="0"/></g><g id="layer1" transform="translate(0,-253)"><rect style="fill:#01a982;fill-opacity:1;stroke-width:.26458332" id="rect815" width="62.14" height="6.815" x="0" y="253.034"/><rect style="fill:#fff;fill-opacity:1;stroke-width:.26458332" id="rect907" width="9.221" height="8.285" x="1.336" y="270.273" ry="0"/><path style="fill-rule:evenodd;stroke-width:2.44580293" id="path1967" d="m 32.795669,288.65618 h 5.03934 l -7.55901,7.1223 -7.55901,-7.1223 h 5.03934 v -11.87054 h 5.03934 z m 7.55901,-18.99285 c 0,-1.04463 -2.2929,-7.1223 -11.338515,-7.1223 -6.097602,0 -11.338515,4.55828 -11.338515,9.49638 -4.988948,0 -7.559013,3.60866 -7.559013,7.1223 0,3.63244 2.519671,7.12231 7.559013,7.12231 h 7.55901 v -3.08626 h -7.55901 c -4.081867,0 -4.283441,-3.37124 -4.283441,-4.03605 0,-0.40378 0.125982,-4.03596 4.283441,-4.03596 h 3.275571 v -3.08634 c 0,-3.3 3.930685,-6.41003 8.062944,-6.41003 6.425158,0 7.886567,3.67982 8.062944,4.27338 v 2.84892 h 3.275571 c 2.040932,0 6.803109,0.52223 6.803109,5.223 0,4.96188 -5.669258,5.22308 -6.803109,5.22308 h -5.039341 v 3.08626 h 5.039341 c 5.240913,0 10.078679,-2.7539 10.078679,-8.30934 0,-5.79278 -4.837766,-8.30935 -10.078679,-8.30935 z"/></g></svg>