<svg xmlns="http://www.w3.org/2000/svg" xmlns:svg="http://www.w3.org/2000/svg" id="svg8" width="62mm" height="44mm" version="1.1" viewBox="0 0 62 44"><defs id="defs2"><marker id="EmptyTriangleInL" orient="auto" refX="0" refY="0" style="overflow:visible"><path id="path1014" d="M 5.77,0.0 L -2.88,5.0 L -2.88,-5.0 L 5.77,0.0 z" transform="scale(-0.8) translate(-6,0)" style="fill-rule:evenodd;fill:#000;stroke:#000;stroke-width:1pt;stroke-opacity:1;fill-opacity:1"/></marker><marker id="EmptyTriangleOutL" orient="auto" refX="0" refY="0" style="overflow:visible"><path id="path1023" d="M 5.77,0.0 L -2.88,5.0 L -2.88,-5.0 L 5.77,0.0 z" transform="scale(0.8) translate(-6,0)" style="fill-rule:evenodd;fill:#000;stroke:#000;stroke-width:1pt;stroke-opacity:1;fill-opacity:1"/></marker><marker id="marker1126" orient="auto" refX="0" refY="0" style="overflow:visible"><path id="path863" d="M 0.0,0.0 L 5.0,-5.0 L -12.5,0.0 L 5.0,5.0 L 0.0,0.0 z" transform="scale(0.8) translate(12.5,0)" style="fill-rule:evenodd;stroke:#000;stroke-width:1pt;stroke-opacity:1;fill:#000;fill-opacity:1"/></marker><marker id="Tail" orient="auto" refX="0" refY="0" style="overflow:visible"><g id="g12935" transform="scale(-1.2)" style="stroke:#000;stroke-opacity:1;fill:#000;fill-opacity:1"><path id="path12923" d="M -3.8048674,-3.9585227 L 0.54352094,0" style="fill:#000;fill-rule:evenodd;stroke:#000;stroke-width:.8;stroke-linecap:round;stroke-opacity:1;fill-opacity:1"/><path id="path12925" d="M -1.2866832,-3.9585227 L 3.0617053,0" style="fill:#000;fill-rule:evenodd;stroke:#000;stroke-width:.8;stroke-linecap:round;stroke-opacity:1;fill-opacity:1"/><path id="path12927" d="M 1.3053582,-3.9585227 L 5.6537466,0" style="fill:#000;fill-rule:evenodd;stroke:#000;stroke-width:.8;stroke-linecap:round;stroke-opacity:1;fill-opacity:1"/><path id="path12929" d="M -3.8048674,4.1775838 L 0.54352094,0.21974226" style="fill:#000;fill-rule:evenodd;stroke:#000;stroke-width:.8;stroke-linecap:round;stroke-opacity:1;fill-opacity:1"/><path id="path12931" d="M -1.2866832,4.1775838 L 3.0617053,0.21974226" style="fill:#000;fill-rule:evenodd;stroke:#000;stroke-width:.8;stroke-linecap:round;stroke-opacity:1;fill-opacity:1"/><path id="path12933" d="M 1.3053582,4.1775838 L 5.6537466,0.21974226" style="fill:#000;fill-rule:evenodd;stroke:#000;stroke-width:.8;stroke-linecap:round;stroke-opacity:1;fill-opacity:1"/></g></marker><marker id="Arrow2Lstart" orient="auto" refX="0" refY="0" style="overflow:visible"><path id="path12905" d="M 8.7185878,4.0337352 L -2.2072895,0.016013256 L 8.7185884,-4.0017078 C 6.9730900,-1.6296469 6.9831476,1.6157441 8.7185878,4.0337352 z" transform="scale(1.1) translate(1,0)" style="fill-rule:evenodd;stroke-width:.625;stroke-linejoin:round;stroke:#c6e619;stroke-opacity:1;fill:#c6e619;fill-opacity:1"/></marker><marker id="marker13799" orient="auto" refX="0" refY="0" style="overflow:visible"><path id="path13797" d="M 0.0,0.0 L 5.0,-5.0 L -12.5,0.0 L 5.0,5.0 L 0.0,0.0 z" transform="scale(0.8) rotate(180) translate(12.5,0)" style="fill-rule:evenodd;stroke:#c6e619;stroke-width:1pt;stroke-opacity:1;fill:#c6e619;fill-opacity:1"/></marker><marker id="marker13717" orient="auto" refX="0" refY="0" style="overflow:visible"><path id="path13715" d="M 8.7185878,4.0337352 L -2.2072895,0.016013256 L 8.7185884,-4.0017078 C 6.9730900,-1.6296469 6.9831476,1.6157441 8.7185878,4.0337352 z" transform="scale(0.3) rotate(180) translate(-2.3,0)" style="fill-rule:evenodd;stroke-width:.625;stroke-linejoin:round;stroke:#c6e619;stroke-opacity:1;fill:#c6e619;fill-opacity:1"/></marker><marker id="marker13641" orient="auto" refX="0" refY="0" style="overflow:visible"><path id="path13639" d="M 8.7185878,4.0337352 L -2.2072895,0.016013256 L 8.7185884,-4.0017078 C 6.9730900,-1.6296469 6.9831476,1.6157441 8.7185878,4.0337352 z" transform="scale(0.6) rotate(180) translate(0,0)" style="fill-rule:evenodd;stroke-width:.625;stroke-linejoin:round;stroke:#c6e619;stroke-opacity:1;fill:#c6e619;fill-opacity:1"/></marker><marker id="marker13571" orient="auto" refX="0" refY="0" style="overflow:visible"><path id="path13569" d="M 0.0,0.0 L 5.0,-5.0 L -12.5,0.0 L 5.0,5.0 L 0.0,0.0 z" transform="scale(0.4) rotate(180) translate(10,0)" style="fill-rule:evenodd;stroke:#c6e619;stroke-width:1pt;stroke-opacity:1;fill:#c6e619;fill-opacity:1"/></marker><marker id="marker13507" orient="auto" refX="0" refY="0" style="overflow:visible"><path id="path13505" d="M 0.0,0.0 L 5.0,-5.0 L -12.5,0.0 L 5.0,5.0 L 0.0,0.0 z" transform="scale(0.4) rotate(180) translate(10,0)" style="fill-rule:evenodd;stroke:#c6e619;stroke-width:1pt;stroke-opacity:1;fill:#c6e619;fill-opacity:1"/></marker><marker id="Arrow1Lend" orient="auto" refX="0" refY="0" style="overflow:visible"><path id="path12890" d="M 0.0,0.0 L 5.0,-5.0 L -12.5,0.0 L 5.0,5.0 L 0.0,0.0 z" transform="scale(0.8) rotate(180) translate(12.5,0)" style="fill-rule:evenodd;stroke:#c6e619;stroke-width:1pt;stroke-opacity:1;fill:#c6e619;fill-opacity:1"/></marker><marker id="marker13375" orient="auto" refX="0" refY="0" style="overflow:visible"><path id="path13373" d="M 8.7185878,4.0337352 L -2.2072895,0.016013256 L 8.7185884,-4.0017078 C 6.9730900,-1.6296469 6.9831476,1.6157441 8.7185878,4.0337352 z" transform="scale(1.1) rotate(180) translate(1,0)" style="fill-rule:evenodd;stroke-width:.625;stroke-linejoin:round;stroke:#c6e619;stroke-opacity:1;fill:#c6e619;fill-opacity:1"/></marker><marker id="Arrow1Mend" orient="auto" refX="0" refY="0" style="overflow:visible"><path id="path12896" d="M 0.0,0.0 L 5.0,-5.0 L -12.5,0.0 L 5.0,5.0 L 0.0,0.0 z" transform="scale(0.4) rotate(180) translate(10,0)" style="fill-rule:evenodd;stroke:#c6e619;stroke-width:1pt;stroke-opacity:1;fill:#c6e619;fill-opacity:1"/></marker><marker id="Arrow2Mend" orient="auto" refX="0" refY="0" style="overflow:visible"><path id="path12914" d="M 8.7185878,4.0337352 L -2.2072895,0.016013256 L 8.7185884,-4.0017078 C 6.9730900,-1.6296469 6.9831476,1.6157441 8.7185878,4.0337352 z" transform="scale(0.6) rotate(180) translate(0,0)" style="fill-rule:evenodd;stroke-width:.625;stroke-linejoin:round;stroke:#000;stroke-opacity:1;fill:#000;fill-opacity:1"/></marker><marker id="Arrow2Send" orient="auto" refX="0" refY="0" style="overflow:visible"><path id="path12920" d="M 8.7185878,4.0337352 L -2.2072895,0.016013256 L 8.7185884,-4.0017078 C 6.9730900,-1.6296469 6.9831476,1.6157441 8.7185878,4.0337352 z" transform="scale(0.3) rotate(180) translate(-2.3,0)" style="fill-rule:evenodd;stroke-width:.625;stroke-linejoin:round;stroke:#c6e619;stroke-opacity:1;fill:#c6e619;fill-opacity:1"/></marker><marker id="Arrow1Lstart" orient="auto" refX="0" refY="0" style="overflow:visible"><path id="path12887" d="M 0.0,0.0 L 5.0,-5.0 L -12.5,0.0 L 5.0,5.0 L 0.0,0.0 z" transform="scale(0.8) translate(12.5,0)" style="fill-rule:evenodd;stroke:#c6e619;stroke-width:1pt;stroke-opacity:1;fill:#c6e619;fill-opacity:1"/></marker><marker id="Arrow2Lend" orient="auto" refX="0" refY="0" style="overflow:visible"><path id="path12908" d="M 8.7185878,4.0337352 L -2.2072895,0.016013256 L 8.7185884,-4.0017078 C 6.9730900,-1.6296469 6.9831476,1.6157441 8.7185878,4.0337352 z" transform="scale(1.1) rotate(180) translate(1,0)" style="fill-rule:evenodd;stroke-width:.625;stroke-linejoin:round;stroke:#c6e619;stroke-opacity:1;fill:#c6e619;fill-opacity:1"/></marker></defs><metadata id="metadata5"/><g id="layer2"><rect style="fill:#fff;fill-opacity:1;stroke-width:.26458332" id="rect905" width="62.14" height="44.901" x="0" y=".168" ry="0"/></g><g id="layer1" transform="translate(0,-253)"><rect style="fill:#01a982;fill-opacity:1;stroke-width:.26458332" id="rect815" width="62.14" height="6.815" x="0" y="253.034"/><rect style="fill:#fff;fill-opacity:1;stroke-width:.26458332" id="rect907" width="9.221" height="8.285" x="1.336" y="270.273" ry="0"/><rect style="fill:#01a985;fill-opacity:1;stroke:none;stroke-width:.26499999;stroke-miterlimit:4;stroke-dasharray:.52999999,.265;stroke-dashoffset:0;stroke-opacity:1" id="rect4376" width="58.799" height="3.074" x="1.465" y="262.528" ry="0"/></g><g id="layer3"><path id="path8660" d="m 20.831384,21.112051 c 1.468084,0.30616 2.904933,-0.61232 3.186055,-2.051271 0.312358,-1.438953 -0.624717,-2.847289 -2.092801,-3.122833 -1.49932,-0.275544 -2.904933,0.61232 -3.186055,2.051272 -0.281123,1.408336 0.655952,2.816673 2.092801,3.122832 z M 2.0274096,28.306813 c 0.37483,-0.734784 1.2494331,-1.01033 1.9990941,-0.673553 l 3.779536,1.83696 1.5617919,-1.653264 c 0.06248,0.857249 0.4373017,1.683881 1.1244894,2.2962 l 0.406066,0.367392 -1.6554984,1.745112 c -0.4373019,0.489857 -1.1557269,0.61232 -1.7804429,0.306161 l -4.747848,-2.2962 C 1.9649376,29.898844 1.6838156,29.041597 2.0274096,28.306813 Z m 11.5260244,8.939872 c 7.725663,3.837205 3.862831,1.918603 0,0 z m 9.995468,-8.511249 -2.686283,0.183696 c -0.74966,0.06124 -1.405613,-0.45924 -1.561791,-1.163407 l -0.593482,-2.908521 -3.717064,3.888232 3.061112,2.816672 c 0.37483,0.336777 0.531009,0.857248 0.437302,1.347105 l -0.999548,5.419032 c -0.156178,0.887863 -1.12449,1.438951 -2.030328,1.071559 -0.655953,-0.244927 -1.030783,-0.979711 -0.874605,-1.653264 l 0.843368,-4.5924 -3.217291,-2.939136 -0.999546,-0.91848 c -0.968312,-0.887863 -1.030783,-2.388048 -0.124944,-3.367761 l 4.248074,-4.347472 -3.279762,-0.704168 -1.999095,1.806344 c -0.4685367,0.428625 -1.1869603,0.459241 -1.6242623,0.03062 -0.468538,-0.45924 -0.468538,-1.194024 0,-1.653264 l 2.3426873,-2.143122 c 0.343594,-0.336776 0.843367,-0.45924 1.343141,-0.367392 l 4.404253,0.949096 c 0.406065,0.09185 0.780895,0.275544 1.062018,0.551088 l 2.467632,2.265584 c 0.37483,0.336776 0.624716,0.7654 0.718424,1.255256 l 0.624717,3.061601 1.905386,-0.122465 c 0.624717,-0.03062 1.218197,0.367392 1.280669,0.979714 0.124943,0.642936 -0.37483,1.224639 -1.030782,1.255255 z" style="stroke-width:.30924365"/><path id="path8660-7" d="m 55.677825,21.245686 c 1.468084,0.30616 2.904933,-0.61232 3.186055,-2.051271 0.312358,-1.438953 -0.624717,-2.847289 -2.092801,-3.122833 -1.49932,-0.275544 -2.904933,0.61232 -3.186055,2.051272 -0.281123,1.408336 0.655952,2.816673 2.092801,3.122832 z m -18.803976,7.194762 c 0.37483,-0.734784 1.249434,-1.01033 1.999095,-0.673553 l 3.779536,1.83696 1.561792,-1.653264 c 0.06248,0.857249 0.437302,1.683881 1.12449,2.2962 l 0.406066,0.367392 -1.655499,1.745112 c -0.437302,0.489857 -1.155727,0.61232 -1.780443,0.306161 l -4.747848,-2.2962 c -0.749661,-0.336777 -1.030782,-1.194024 -0.687189,-1.928808 z m 11.526026,8.939872 c 7.725663,3.837205 3.862831,1.918603 0,0 z m 9.995468,-8.511249 -2.686283,0.183696 c -0.74966,0.06124 -1.405613,-0.45924 -1.561791,-1.163407 l -0.593482,-2.908521 -3.717064,3.888232 3.061112,2.816672 c 0.37483,0.336777 0.531009,0.857248 0.437302,1.347105 l -0.999548,5.419032 c -0.156178,0.887863 -1.12449,1.438951 -2.030328,1.071559 -0.655953,-0.244927 -1.030783,-0.979711 -0.874605,-1.653264 l 0.843368,-4.5924 -3.217291,-2.939136 -0.999546,-0.91848 c -0.968313,-0.887863 -1.030784,-2.388048 -0.124944,-3.367761 l 4.248074,-4.347472 -3.279762,-0.704168 -1.999095,1.806344 c -0.468537,0.428625 -1.186961,0.459241 -1.624263,0.03062 -0.468538,-0.45924 -0.468538,-1.194024 0,-1.653264 l 2.342688,-2.143122 c 0.343594,-0.336776 0.843367,-0.45924 1.343141,-0.367392 l 4.404253,0.949096 c 0.406065,0.09185 0.780895,0.275544 1.062018,0.551088 l 2.467632,2.265584 c 0.37483,0.336776 0.624716,0.7654 0.718424,1.255256 l 0.624717,3.061601 1.905386,-0.122465 c 0.624717,-0.03062 1.218197,0.367392 1.280669,0.979714 0.124943,0.642936 -0.37483,1.224639 -1.030782,1.255255 z" style="stroke-width:.30924365"/><path style="fill:#000;fill-opacity:1;stroke:#000;stroke-width:.63132077;stroke-linecap:butt;stroke-linejoin:miter;stroke-miterlimit:4;stroke-dasharray:none;stroke-opacity:1;marker-end:url(#EmptyTriangleInL)" id="path13219" d="m 23.384284,23.786847 c 17.430032,0.03988 17.238492,0.03988 17.238492,0.03988"/></g></svg>