<svg xmlns="http://www.w3.org/2000/svg" xmlns:svg="http://www.w3.org/2000/svg" id="svg8" width="62mm" height="44mm" version="1.1" viewBox="0 0 62 44"><metadata id="metadata5"/><g id="layer2"><rect style="fill:#fff;fill-opacity:1;stroke-width:.26458332" id="rect905" width="62.14" height="44.901" x="-.134" y=".034" ry="0"/></g><g id="layer1" transform="translate(0,-253)"><rect style="fill:#01a982;fill-opacity:1;stroke-width:.26458332" id="rect815" width="62.14" height="6.815" x="0" y="253.034"/><rect style="fill:#fff;fill-opacity:1;stroke-width:.26458332" id="rect907" width="9.221" height="8.285" x="1.336" y="270.273" ry="0"/><g id="g4635" transform="matrix(0.12129176,0,0,0.10052362,12.597069,261.33317)"><g id="g4633"><g id="g4631"><g id="g4615"><path id="path4613" d="M 199.654,105.629 H 49.965 c -4.143,0 -7.5,-3.357 -7.5,-7.5 0,-4.143 3.357,-7.5 7.5,-7.5 h 149.689 c 4.142,0 7.5,3.357 7.5,7.5 0,4.143 -3.358,7.5 -7.5,7.5 z"/></g><g id="g4619"><path id="path4617" d="M 163.922,139.246 H 49.965 c -4.143,0 -7.5,-3.357 -7.5,-7.5 0,-4.143 3.357,-7.5 7.5,-7.5 h 113.957 c 4.142,0 7.5,3.357 7.5,7.5 0,4.143 -3.359,7.5 -7.5,7.5 z"/></g><g id="g4623"><path id="path4621" d="M 87.682,240.096 H 49.965 c -4.143,0 -7.5,-3.357 -7.5,-7.5 0,-4.143 3.357,-7.5 7.5,-7.5 h 37.717 c 4.142,0 7.5,3.357 7.5,7.5 0,4.142 -3.359,7.5 -7.5,7.5 z"/></g><g id="g4627"><path id="path4625" d="M 71.332,273.713 H 49.965 c -4.143,0 -7.5,-3.357 -7.5,-7.5 0,-4.143 3.357,-7.5 7.5,-7.5 h 21.367 c 4.142,0 7.5,3.357 7.5,7.5 0,4.142 -3.358,7.5 -7.5,7.5 z"/></g><path id="path4629" d="M 333.404,34.782 316.296,22.025 c -4.308,-3.212 -9.605,-4.558 -14.923,-3.779 -5.316,0.775 -10.012,3.573 -13.223,7.88 -0.002,0.002 -0.004,0.005 -0.005,0.007 l -42.411,57.48 V 26.529 c 0,-4.143 -3.357,-7.5 -7.5,-7.5 h -31.08 V 7.5 c 0,-4.143 -3.358,-7.5 -7.5,-7.5 -4.143,0 -7.5,3.357 -7.5,7.5 V 19.029 H 169.73 V 7.5 c 0,-4.143 -3.357,-7.5 -7.5,-7.5 -4.142,0 -7.5,3.357 -7.5,7.5 V 19.029 H 132.308 V 7.5 c 0,-4.143 -3.357,-7.5 -7.5,-7.5 -4.143,0 -7.5,3.357 -7.5,7.5 V 19.029 H 94.887 V 7.5 c 0,-4.143 -3.358,-7.5 -7.5,-7.5 -4.143,0 -7.5,3.357 -7.5,7.5 V 19.029 H 57.465 V 7.5 c 0,-4.143 -3.358,-7.5 -7.5,-7.5 -4.143,0 -7.5,3.357 -7.5,7.5 V 19.029 H 11.383 c -4.142,0 -7.5,3.357 -7.5,7.5 v 311.34 c 0,4.143 3.358,7.5 7.5,7.5 h 226.852 c 4.143,0 7.5,-3.357 7.5,-7.5 V 188.138 L 337.502,62.934 c 10e-4,-0.002 0.003,-0.003 0.005,-0.005 6.627,-8.891 4.788,-21.517 -4.103,-28.147 z M 230.734,330.369 H 18.883 V 34.029 h 23.582 v 11.527 c 0,4.143 3.357,7.5 7.5,7.5 4.142,0 7.5,-3.357 7.5,-7.5 V 34.029 h 22.422 v 11.527 c 0,4.143 3.357,7.5 7.5,7.5 4.142,0 7.5,-3.357 7.5,-7.5 V 34.029 h 22.422 v 11.527 c 0,4.143 3.357,7.5 7.5,7.5 4.143,0 7.5,-3.357 7.5,-7.5 V 34.029 h 22.422 v 11.527 c 0,4.143 3.358,7.5 7.5,7.5 4.143,0 7.5,-3.357 7.5,-7.5 V 34.029 h 22.424 v 11.527 c 0,4.143 3.357,7.5 7.5,7.5 4.142,0 7.5,-3.357 7.5,-7.5 V 34.029 h 23.58 v 70.166 l -39.113,53.668 H 49.965 c -4.143,0 -7.5,3.357 -7.5,7.5 0,4.143 3.357,7.5 7.5,7.5 H 180.69 c 0,0 -42.642,58.513 -42.65,58.525 0,0 0.002,0 0.004,0 -0.484,0.673 -0.87,1.432 -1.115,2.272 l -17.15,58.669 H 49.965 c -4.143,0 -7.5,3.357 -7.5,7.5 0,4.143 3.357,7.5 7.5,7.5 0,0 75.515,-0.006 75.555,-0.006 0,-10e-4 -10e-4,-0.002 -0.002,-0.002 1.373,-0.022 2.744,-0.413 3.951,-1.193 l 56.059,-36.229 c 0.771,-0.498 1.412,-1.119 1.932,-1.813 0.018,-0.024 43.275,-59.367 43.275,-59.367 v 121.65 z m -82.438,-82.139 20.024,14.932 -30.069,19.432 z m 31.565,4.827 -25.305,-18.869 118.288,-162.305 25.305,18.869 z M 307.05,78.678 281.744,59.809 289.82,48.979 315.125,67.85 Z m 18.43,-24.716 c -0.002,0.002 -0.004,0.005 -0.005,0.007 l -1.384,1.855 -25.305,-18.871 1.383,-1.854 c 0.002,-0.002 0.004,-0.004 0.006,-0.006 0.816,-1.095 2.01,-1.807 3.361,-2.004 1.353,-0.196 2.697,0.146 3.791,0.961 l 17.109,12.757 c 2.261,1.685 2.729,4.895 1.044,7.155 z"/></g></g></g></g></svg>