<svg xmlns="http://www.w3.org/2000/svg" xmlns:svg="http://www.w3.org/2000/svg" id="svg8" width="62mm" height="44mm" version="1.1" viewBox="0 0 62 44"><metadata id="metadata5"/><g id="layer2"><rect style="fill:#fff;fill-opacity:1;stroke-width:.26458332" id="rect905" width="62.14" height="44.901" x="0" y=".168" ry="0"/></g><g id="layer1" transform="translate(0,-253)"><rect style="fill:#01a982;fill-opacity:1;stroke-width:.26458332" id="rect815" width="62.14" height="6.815" x="0" y="253.034"/><rect style="fill:#fff;fill-opacity:1;stroke-width:.26458332" id="rect907" width="9.221" height="8.285" x="1.336" y="270.273" ry="0"/><rect style="fill:#01a985;fill-opacity:1;stroke:none;stroke-width:.26499999;stroke-miterlimit:4;stroke-dasharray:.52999999,.265;stroke-dashoffset:0;stroke-opacity:1" id="rect4376" width="58.799" height="3.074" x="1.465" y="262.528" ry="0"/><rect style="fill:#c8c8c8;fill-opacity:1;stroke:none;stroke-width:.26499999;stroke-miterlimit:4;stroke-dasharray:.52999999,.265;stroke-dashoffset:0;stroke-opacity:1" id="rect4378" width="58.799" height="2.138" x="1.465" y="267.289" ry="0"/><rect style="fill:#c8c8c8;fill-opacity:1;stroke:none;stroke-width:.26499999;stroke-miterlimit:4;stroke-dasharray:.53,.265;stroke-dashoffset:0;stroke-opacity:1" id="rect4378-9" width="58.799" height="2.138" x="1.465" y="271.52" ry="0"/><rect style="fill:#c8c8c8;fill-opacity:1;stroke:none;stroke-width:.26499999;stroke-miterlimit:4;stroke-dasharray:.53,.26500000000000001;stroke-dashoffset:0;stroke-opacity:1" id="rect4378-3" width="58.799" height="2.138" x="1.465" y="275.752" ry="0"/></g><g id="layer3"><path id="path8660" d="m 28.170552,21.245686 c 1.468084,0.30616 2.904933,-0.61232 3.186055,-2.051271 0.312358,-1.438953 -0.624717,-2.847289 -2.092801,-3.122833 -1.49932,-0.275544 -2.904933,0.61232 -3.186055,2.051272 -0.281123,1.408336 0.655952,2.816673 2.092801,3.122832 z M 9.3665769,28.440448 c 0.37483,-0.734784 1.2494331,-1.01033 1.9990941,-0.673553 l 3.779536,1.83696 1.561792,-1.653264 c 0.06248,0.857249 0.437302,1.683881 1.12449,2.2962 l 0.406066,0.367392 -1.655499,1.745112 c -0.437302,0.489857 -1.155727,0.61232 -1.780443,0.306161 l -4.747848,-2.2962 C 9.3041049,30.032479 9.0229829,29.175232 9.3665769,28.440448 Z M 20.892602,37.38032 c 7.725663,3.837205 3.862831,1.918603 0,0 z m 9.995468,-8.511249 -2.686283,0.183696 c -0.74966,0.06124 -1.405613,-0.45924 -1.561791,-1.163407 l -0.593482,-2.908521 -3.717064,3.888232 3.061112,2.816672 c 0.37483,0.336777 0.531009,0.857248 0.437302,1.347105 l -0.999548,5.419032 c -0.156178,0.887863 -1.12449,1.438951 -2.030328,1.071559 -0.655953,-0.244927 -1.030783,-0.979711 -0.874605,-1.653264 l 0.843368,-4.5924 -3.217291,-2.939136 -0.999546,-0.91848 C 17.581602,28.532296 17.519131,27.032111 18.42497,26.052398 l 4.248074,-4.347472 -3.279762,-0.704168 -1.999095,1.806344 c -0.468537,0.428625 -1.186961,0.459241 -1.624263,0.03062 -0.468538,-0.45924 -0.468538,-1.194024 0,-1.653264 l 2.342688,-2.143122 c 0.343594,-0.336776 0.843367,-0.45924 1.343141,-0.367392 l 4.404253,0.949096 c 0.406065,0.09185 0.780895,0.275544 1.062018,0.551088 l 2.467632,2.265584 c 0.37483,0.336776 0.624716,0.7654 0.718424,1.255256 l 0.624717,3.061601 1.905386,-0.122465 c 0.624717,-0.03062 1.218197,0.367392 1.280669,0.979714 0.124943,0.642936 -0.37483,1.224639 -1.030782,1.255255 z" style="stroke-width:.30924365"/></g></svg>