<svg xmlns="http://www.w3.org/2000/svg" xmlns:svg="http://www.w3.org/2000/svg" id="svg8" width="62mm" height="44mm" version="1.1" viewBox="0 0 62 44"><metadata id="metadata5"/><g id="layer2"><rect style="fill:#fff;fill-opacity:1;stroke-width:.26458332" id="rect905" width="62.14" height="44.901" x="-.134" y="-.099" ry="0"/></g><g id="layer1" transform="translate(0,-253)"><rect style="fill:#01a982;fill-opacity:1;stroke-width:.26458332" id="rect815" width="62.14" height="6.815" x="0" y="253.034"/><rect style="fill:#fff;fill-opacity:1;stroke-width:.26458332" id="rect907" width="9.221" height="8.285" x="1.336" y="270.273" ry="0"/><rect style="fill:#36b640;fill-opacity:1;stroke:none;stroke-width:.31181443;stroke-opacity:1" id="rect2098" width="3.341" height="23.653" x="3.608" y="270.006" ry="0"/><rect style="fill:#36b640;fill-opacity:1;stroke:none;stroke-width:.30378354;stroke-opacity:1" id="rect2098-4" width="3.341" height="22.451" x="6.949" y="271.208" ry="0"/><rect style="fill:#36b640;fill-opacity:1;stroke:none;stroke-width:.29646236;stroke-opacity:1" id="rect2098-0" width="3.341" height="21.382" x="10.29" y="272.278" ry="0"/><rect style="fill:#36b640;fill-opacity:1;stroke:none;stroke-width:.28609002;stroke-opacity:1" id="rect2098-9" width="3.341" height="19.912" x="13.631" y="273.748" ry="0"/><rect style="fill:#36b640;fill-opacity:1;stroke:none;stroke-width:.27731514;stroke-opacity:1" id="rect2098-5" width="3.341" height="18.709" x="16.972" y="274.95" ry="0"/><rect style="fill:#36b640;fill-opacity:1;stroke:none;stroke-width:.25781149;stroke-opacity:1" id="rect2098-8" width="3.341" height="16.17" x="20.312" y="277.489" ry="0"/><rect style="fill:#36b640;fill-opacity:1;stroke:none;stroke-width:.24016196;stroke-opacity:1" id="rect2098-1" width="3.341" height="14.032" x="23.653" y="279.627" ry="0"/><rect style="fill:#36b640;fill-opacity:1;stroke:none;stroke-width:.2320185;stroke-opacity:1" id="rect2098-2" width="3.341" height="13.096" x="26.994" y="280.563" ry="0"/><rect style="fill:#36b640;fill-opacity:1;stroke:none;stroke-width:.21734957;stroke-opacity:1" id="rect2098-88" width="3.341" height="11.493" x="30.335" y="282.167" ry="0"/><rect style="fill:#36b640;fill-opacity:1;stroke:none;stroke-width:.2029739;stroke-opacity:1" id="rect2098-91" width="3.341" height="10.023" x="33.676" y="283.637" ry="0"/><path style="fill:none;stroke:#000;stroke-width:.45032083;stroke-linecap:butt;stroke-linejoin:miter;stroke-opacity:1;stroke-miterlimit:4;stroke-dasharray:none" id="path2311" d="M 5.2117556,265.72947 53.186636,293.25823"/></g></svg>